<svg width="800" height="1000" xmlns="http://www.w3.org/2000/svg">
  <!-- Start -->
  <circle cx="400" cy="50" r="20" fill="#4caf50" stroke="#2e7d32" stroke-width="2"/>
  <text x="430" y="55" font-size="12">Start</text>

  <!-- User Login/Register -->
  <rect x="320" y="100" width="160" height="40" rx="20" fill="#e3f2fd" stroke="#1976d2" stroke-width="1"/>
  <text x="400" y="125" text-anchor="middle" font-size="12">Login/Register</text>

  <!-- Decision: Authentication -->
  <polygon points="400,180 450,200 400,220 350,200" fill="#fff3e0" stroke="#f57c00" stroke-width="1"/>
  <text x="400" y="205" text-anchor="middle" font-size="10">Auth Success?</text>

  <!-- Main Dashboard -->
  <rect x="320" y="260" width="160" height="40" rx="20" fill="#e8f5e8" stroke="#388e3c" stroke-width="1"/>
  <text x="400" y="285" text-anchor="middle" font-size="12">View Dashboard</text>

  <!-- Decision: User Action -->
  <polygon points="400,340 480,370 400,400 320,370" fill="#fff3e0" stroke="#f57c00" stroke-width="1"/>
  <text x="400" y="375" text-anchor="middle" font-size="10">Select Action</text>

  <!-- Create Post Branch -->
  <rect x="50" y="450" width="120" height="40" rx="20" fill="#f3e5f5" stroke="#7b1fa2" stroke-width="1"/>
  <text x="110" y="475" text-anchor="middle" font-size="11">Create Post</text>

  <rect x="50" y="520" width="120" height="40" rx="20" fill="#f3e5f5" stroke="#7b1fa2" stroke-width="1"/>
  <text x="110" y="545" text-anchor="middle" font-size="11">Add Content/Image</text>

  <rect x="50" y="590" width="120" height="40" rx="20" fill="#f3e5f5" stroke="#7b1fa2" stroke-width="1"/>
  <text x="110" y="615" text-anchor="middle" font-size="11">Publish Post</text>

  <!-- View Posts Branch -->
  <rect x="200" y="450" width="120" height="40" rx="20" fill="#e1f5fe" stroke="#0277bd" stroke-width="1"/>
  <text x="260" y="475" text-anchor="middle" font-size="11">View Posts</text>

  <rect x="200" y="520" width="120" height="40" rx="20" fill="#e1f5fe" stroke="#0277bd" stroke-width="1"/>
  <text x="260" y="545" text-anchor="middle" font-size="11">Like/Comment</text>

  <!-- Manage Friends Branch -->
  <rect x="350" y="450" width="120" height="40" rx="20" fill="#e8f5e8" stroke="#388e3c" stroke-width="1"/>
  <text x="410" y="475" text-anchor="middle" font-size="11">Manage Friends</text>

  <rect x="350" y="520" width="120" height="40" rx="20" fill="#e8f5e8" stroke="#388e3c" stroke-width="1"/>
  <text x="410" y="545" text-anchor="middle" font-size="11">Send/Accept Requests</text>

  <!-- Profile Management Branch -->
  <rect x="500" y="450" width="120" height="40" rx="20" fill="#fce4ec" stroke="#c2185b" stroke-width="1"/>
  <text x="560" y="475" text-anchor="middle" font-size="11">Edit Profile</text>

  <rect x="500" y="520" width="120" height="40" rx="20" fill="#fce4ec" stroke="#c2185b" stroke-width="1"/>
  <text x="560" y="545" text-anchor="middle" font-size="11">Update Info</text>

  <!-- Admin Branch -->
  <rect x="650" y="450" width="120" height="40" rx="20" fill="#ffebee" stroke="#d32f2f" stroke-width="1"/>
  <text x="710" y="475" text-anchor="middle" font-size="11">Admin Panel</text>

  <rect x="650" y="520" width="120" height="40" rx="20" fill="#ffebee" stroke="#d32f2f" stroke-width="1"/>
  <text x="710" y="545" text-anchor="middle" font-size="11">Manage System</text>

  <!-- Merge Point -->
  <circle cx="400" cy="700" r="10" fill="#333"/>

  <!-- Decision: Continue -->
  <polygon points="400,750 450,770 400,790 350,770" fill="#fff3e0" stroke="#f57c00" stroke-width="1"/>
  <text x="400" y="775" text-anchor="middle" font-size="10">Continue?</text>

  <!-- Logout -->
  <rect x="320" y="830" width="160" height="40" rx="20" fill="#ffebee" stroke="#d32f2f" stroke-width="1"/>
  <text x="400" y="855" text-anchor="middle" font-size="12">Logout</text>

  <!-- End -->
  <circle cx="400" cy="920" r="20" fill="#f44336" stroke="#c62828" stroke-width="2"/>
  <circle cx="400" cy="920" r="15" fill="#c62828"/>
  <text x="430" y="925" font-size="12">End</text>

  <!-- Flow Lines -->
  <line x1="400" y1="70" x2="400" y2="100" stroke="#333" stroke-width="2" marker-end="url(#arrowhead)"/>
  <line x1="400" y1="140" x2="400" y2="180" stroke="#333" stroke-width="2" marker-end="url(#arrowhead)"/>
  <line x1="400" y1="220" x2="400" y2="260" stroke="#333" stroke-width="2" marker-end="url(#arrowhead)"/>
  <line x1="400" y1="300" x2="400" y2="340" stroke="#333" stroke-width="2" marker-end="url(#arrowhead)"/>

  <!-- Branch Lines -->
  <line x1="320" y1="370" x2="110" y2="450" stroke="#333" stroke-width="1" marker-end="url(#arrowhead)"/>
  <line x1="340" y1="380" x2="260" y2="450" stroke="#333" stroke-width="1" marker-end="url(#arrowhead)"/>
  <line x1="400" y1="400" x2="410" y2="450" stroke="#333" stroke-width="1" marker-end="url(#arrowhead)"/>
  <line x1="460" y1="380" x2="560" y2="450" stroke="#333" stroke-width="1" marker-end="url(#arrowhead)"/>
  <line x1="480" y1="370" x2="710" y2="450" stroke="#333" stroke-width="1" marker-end="url(#arrowhead)"/>

  <!-- Sub-process Lines -->
  <line x1="110" y1="490" x2="110" y2="520" stroke="#333" stroke-width="1" marker-end="url(#arrowhead)"/>
  <line x1="110" y1="560" x2="110" y2="590" stroke="#333" stroke-width="1" marker-end="url(#arrowhead)"/>
  <line x1="260" y1="490" x2="260" y2="520" stroke="#333" stroke-width="1" marker-end="url(#arrowhead)"/>
  <line x1="410" y1="490" x2="410" y2="520" stroke="#333" stroke-width="1" marker-end="url(#arrowhead)"/>
  <line x1="560" y1="490" x2="560" y2="520" stroke="#333" stroke-width="1" marker-end="url(#arrowhead)"/>
  <line x1="710" y1="490" x2="710" y2="520" stroke="#333" stroke-width="1" marker-end="url(#arrowhead)"/>

  <!-- Merge Lines -->
  <line x1="110" y1="630" x2="400" y2="690" stroke="#333" stroke-width="1" marker-end="url(#arrowhead)"/>
  <line x1="260" y1="560" x2="400" y2="690" stroke="#333" stroke-width="1" marker-end="url(#arrowhead)"/>
  <line x1="410" y1="560" x2="400" y2="690" stroke="#333" stroke-width="1" marker-end="url(#arrowhead)"/>
  <line x1="560" y1="560" x2="400" y2="690" stroke="#333" stroke-width="1" marker-end="url(#arrowhead)"/>
  <line x1="710" y1="560" x2="400" y2="690" stroke="#333" stroke-width="1" marker-end="url(#arrowhead)"/>

  <line x1="400" y1="710" x2="400" y2="750" stroke="#333" stroke-width="2" marker-end="url(#arrowhead)"/>
  <line x1="400" y1="790" x2="400" y2="830" stroke="#333" stroke-width="2" marker-end="url(#arrowhead)"/>
  <line x1="400" y1="870" x2="400" y2="900" stroke="#333" stroke-width="2" marker-end="url(#arrowhead)"/>

  <!-- Loop Back -->
  <path d="M 350 770 Q 250 770 250 370 Q 250 340 320 370" fill="none" stroke="#666" stroke-width="1" stroke-dasharray="3,3" marker-end="url(#arrowhead)"/>
  <text x="250" y="550" font-size="10" fill="#666">Yes</text>

  <!-- Failure Path -->
  <path d="M 350 200 Q 200 200 200 100 Q 200 80 320 120" fill="none" stroke="#f44336" stroke-width="1" stroke-dasharray="3,3" marker-end="url(#arrowhead)"/>
  <text x="250" y="150" font-size="10" fill="#f44336">No</text>

  <!-- Labels -->
  <text x="450" y="205" font-size="10" fill="#4caf50">Yes</text>
  <text x="450" y="785" font-size="10" fill="#f44336">No</text>

  <!-- Arrow marker definition -->
  <defs>
    <marker id="arrowhead" markerWidth="10" markerHeight="7" refX="9" refY="3.5" orient="auto">
      <polygon points="0 0, 10 3.5, 0 7" fill="#333"/>
    </marker>
  </defs>
</svg>

